<mxfile host="app.diagrams.net" modified="2024-01-20T14:36:25.241Z" agent="Mozilla/5.0 (Windows NT 10.0; Win64; x64) AppleWebKit/537.36 (KHTML, like Gecko) Chrome/120.0.0.0 Safari/537.36" version="22.1.21" etag="FhU6Ng4yo5OTNTiZLcYb" type="github">
  <diagram name="Page-1" id="_8Fotm1Q9LCtrFNHTrkE">
    <mxGraphModel>
      <root>
        <mxCell id="0" />
        <mxCell id="1" parent="0" />
      </root>
    </mxGraphModel>
  </diagram>
</mxfile>
